<?xml version="1.0" standalone="no"?>
<!DOCTYPE svg PUBLIC "-//W3C//DTD SVG 20010904//EN"
 "http://www.w3.org/TR/2001/REC-SVG-20010904/DTD/svg10.dtd">
<svg version="1.0" xmlns="http://www.w3.org/2000/svg"
 width="818.000000pt" height="669.000000pt" viewBox="0 0 818.000000 669.000000"
 preserveAspectRatio="xMidYMid meet">

<g transform="translate(0.000000,669.000000) scale(0.100000,-0.100000)"
fill="#000000" stroke="none">
<path d="M3970 6571 c-49 -24 -96 -51 -1030 -591 -250 -145 -511 -295 -580
-335 -69 -39 -183 -106 -255 -147 -71 -41 -188 -109 -260 -150 -71 -41 -191
-110 -265 -153 -74 -43 -193 -112 -265 -153 -537 -309 -653 -378 -679 -401
-36 -32 -65 -96 -66 -139 0 -66 49 -144 115 -180 26 -15 83 -18 445 -22 l415
-5 5 -1337 5 -1337 160 -94 c88 -51 233 -135 322 -185 89 -51 167 -99 173
-107 9 -11 8 -25 -6 -62 -35 -92 -13 -205 54 -277 27 -29 140 -106 177 -121
11 -4 51 -11 89 -14 l68 -6 19 -50 c26 -71 70 -118 150 -167 62 -36 80 -42
145 -46 72 -4 76 -6 91 -36 36 -70 66 -97 160 -143 90 -43 96 -45 161 -40 37
3 79 9 94 12 24 6 30 3 45 -25 52 -95 114 -137 258 -176 161 -43 226 -35 335
37 l61 41 58 -16 c33 -9 95 -16 147 -16 129 0 219 29 315 103 35 27 58 35 106
40 107 11 215 56 308 129 50 39 58 42 122 43 143 3 266 96 314 237 15 46 21
52 62 67 82 29 131 72 168 147 31 62 34 77 34 156 l0 88 415 240 415 240 5
1337 5 1338 417 5 416 5 44 30 c67 48 88 86 88 162 0 70 -13 104 -57 144 -15
15 -278 171 -583 346 -305 176 -600 346 -655 378 -55 32 -156 90 -225 130 -69
39 -183 106 -255 147 -71 41 -350 202 -620 358 -269 156 -548 317 -620 358
-375 218 -404 232 -470 232 -37 -1 -73 -8 -95 -19z m234 -990 c66 -38 191
-109 276 -158 313 -181 497 -287 585 -338 50 -28 149 -85 220 -127 72 -41 207
-119 300 -173 94 -54 244 -141 335 -193 91 -53 217 -125 280 -161 l115 -66 3
-527 2 -526 -116 -62 c-63 -34 -122 -59 -130 -56 -12 5 -14 83 -14 516 l0 510
-37 24 c-32 20 -397 232 -1073 621 -69 39 -183 106 -255 147 -546 316 -621
358 -631 358 -5 0 -43 -20 -84 -43 -41 -24 -165 -96 -275 -159 -110 -63 -261
-150 -335 -193 -74 -43 -175 -102 -225 -130 -49 -29 -148 -86 -220 -127 -71
-41 -276 -159 -455 -262 -179 -103 -342 -199 -362 -212 l-38 -24 0 -500 c0
-350 -3 -501 -11 -506 -6 -3 -63 29 -127 72 l-117 79 0 500 0 500 115 66 c110
62 344 198 550 317 52 30 183 105 290 167 107 62 330 190 495 286 695 400 781
449 799 449 10 0 73 -31 140 -69z m-269 -1646 l0 -390 -390 0 -390 0 0 80 c1
94 25 178 89 300 75 146 247 295 410 356 71 26 187 48 241 46 l40 -2 0 -390z
m406 380 c167 -29 290 -95 419 -225 133 -134 214 -309 215 -465 l0 -80 -390 0
-390 0 -3 380 c-1 209 0 386 3 392 6 17 44 16 146 -2z m-406 -1149 l0 -119
-69 -23 -69 -24 -81 27 c-73 24 -96 27 -221 27 -126 0 -149 -3 -232 -28 -50
-16 -99 -26 -107 -23 -13 5 -16 28 -16 140 0 74 3 137 7 140 4 4 182 6 397 5
l391 -3 0 -119z m1050 -101 c0 -213 -1 -220 -20 -223 -11 -1 -119 38 -240 88
-234 97 -331 127 -454 138 l-76 7 -3 94 c-1 52 0 101 2 108 5 11 78 13 398 11
l393 -3 0 -220z m-2872 -127 c364 -243 444 -278 639 -278 129 0 225 26 383
104 177 87 225 101 225 64 0 -6 -49 -61 -108 -122 -60 -61 -122 -133 -138
-161 l-29 -50 0 -220 c0 -217 0 -221 26 -276 84 -179 308 -256 464 -159 78 48
137 156 169 306 10 44 28 57 121 88 143 47 133 51 372 -142 114 -92 341 -282
504 -422 290 -249 301 -258 494 -370 265 -155 287 -169 308 -210 26 -50 18
-117 -18 -147 -22 -20 -37 -23 -105 -23 l-78 0 -209 107 c-210 107 -218 113
-592 390 -96 72 -135 80 -176 39 -33 -33 -40 -67 -22 -103 9 -16 71 -70 144
-123 70 -51 178 -131 240 -176 84 -63 169 -112 342 -199 250 -124 255 -129
204 -177 -49 -45 -70 -51 -152 -44 -218 20 -300 58 -605 280 -252 183 -265
189 -317 137 -38 -38 -39 -80 -1 -120 52 -57 436 -331 530 -378 62 -31 92 -52
90 -62 -5 -23 -64 -34 -159 -28 -103 5 -141 21 -333 136 -125 76 -134 83 -139
117 -15 89 -80 174 -170 222 -45 23 -64 27 -140 27 l-89 0 -20 38 c-26 51
-101 123 -163 155 -43 23 -63 27 -135 27 l-85 0 -59 63 c-85 89 -181 136 -277
135 -86 -1 -165 -35 -231 -100 -32 -32 -52 -44 -66 -41 -15 4 -331 180 -882
493 l-55 31 -3 664 c-1 366 0 671 3 678 2 6 9 12 15 12 6 0 133 -82 283 -182z
m4202 -518 l0 -655 -220 -128 c-540 -313 -535 -310 -560 -299 -13 6 -108 61
-212 123 -173 103 -208 129 -427 318 -436 376 -751 632 -808 655 -79 33 -127
30 -256 -13 -145 -48 -156 -53 -205 -100 -38 -36 -43 -49 -92 -225 -22 -79
-52 -106 -119 -106 -63 0 -106 25 -129 73 -14 29 -17 67 -17 210 l0 175 39 49
c21 26 72 80 112 119 l74 72 208 76 c276 101 321 111 482 110 179 -1 192 -5
625 -184 199 -83 297 -105 420 -97 48 4 115 16 151 27 35 11 253 119 484 240
231 121 427 219 435 217 13 -2 15 -83 15 -657z m-3168 -1256 c47 -27 73 -59
73 -89 0 -20 -181 -328 -216 -366 -9 -10 -34 -24 -55 -30 -33 -10 -43 -9 -85
12 -75 38 -87 60 -78 153 6 72 11 83 71 179 36 56 77 114 91 130 49 52 122 56
199 11z m-635 -96 c50 -28 93 -58 96 -66 6 -16 -30 -49 -65 -58 -51 -14 -173
79 -173 133 0 59 27 58 142 -9z m1028 -83 c72 -37 92 -121 47 -193 -13 -20
-54 -91 -90 -157 -57 -104 -73 -124 -114 -150 -54 -34 -100 -37 -153 -10 -59
29 -70 44 -70 91 0 37 15 68 109 221 85 141 115 182 142 195 42 22 91 23 129
3z m419 -221 c29 -20 51 -72 51 -118 0 -22 -23 -80 -65 -164 -64 -128 -77
-176 -54 -199 7 -7 9 -19 5 -29 -8 -20 -42 -17 -164 16 -101 27 -122 51 -122
140 0 50 7 68 66 175 74 133 95 161 139 180 43 19 116 18 144 -1z m328 -350
c63 -37 112 -72 110 -78 -2 -7 -39 -12 -98 -14 -81 -2 -100 1 -139 20 -33 17
-46 30 -48 48 -3 28 31 90 49 90 7 0 63 -30 126 -66z"/>
</g>
</svg>
